<svg width="79" height="84" viewBox="0 0 79 84" fill="none" xmlns="http://www.w3.org/2000/svg">
<path d="M24.2857 80H14.1429C8.54111 80 4 75.6041 4 70.1811V35.4219C4 32.5553 5.29387 29.8321 7.54199 27.9667L32.899 6.92632C36.6975 3.77456 42.3025 3.77456 46.101 6.92632L71.4581 27.9667C73.7063 29.8321 75 32.5553 75 35.4219V70.1811C75 75.6041 70.459 80 64.8571 80H54.7143M24.2857 80V50.5434C24.2857 47.832 26.5563 45.634 29.3571 45.634H49.6429C52.4438 45.634 54.7143 47.832 54.7143 50.5434V80M24.2857 80H54.7143" stroke="#9F7AEA" stroke-width="8" stroke-linecap="round" stroke-linejoin="round"/>
</svg>
