<svg width="85" height="85" viewBox="0 0 85 85" fill="none" xmlns="http://www.w3.org/2000/svg">
<path d="M1.85056 46.9705C-0.617057 44.5026 -0.616824 40.5015 1.85108 38.0339L14.363 25.5235C16.8309 23.0558 20.8319 23.0561 23.2996 25.524L35.81 38.0359C38.2776 40.5038 38.2774 44.5048 35.8095 46.9725L23.2976 59.4829C20.8297 61.9505 16.8286 61.9503 14.361 59.4824L1.85056 46.9705Z" fill="#656565"/>
<path d="M25.5172 70.637C23.0496 68.1691 23.0498 64.168 25.5177 61.7004L38.0296 49.19C40.4975 46.7224 44.4986 46.7226 46.9662 49.1905L59.4767 61.7024C61.9443 64.1703 61.944 68.1714 59.4761 70.639L46.9642 83.1494C44.4963 85.617 40.4953 85.6168 38.0277 83.1489L25.5172 70.637Z" fill="#656565"/>
<path d="M25.5109 23.2976C23.0433 20.8297 23.0435 16.8286 25.5114 14.361L38.0233 1.85056C40.4913 -0.617057 44.4923 -0.616824 46.9599 1.85108L59.4704 14.363C61.938 16.8309 61.9377 20.8319 59.4698 23.2996L46.9579 35.81C44.49 38.2776 40.489 38.2774 38.0214 35.8095L25.5109 23.2976Z" fill="#656565"/>
<path d="M49.1837 46.9705C46.7161 44.5026 46.7163 40.5015 49.1842 38.0339L61.6962 25.5235C64.1641 23.0558 68.1651 23.0561 70.6327 25.524L83.1432 38.0359C85.6108 40.5038 85.6106 44.5048 83.1427 46.9725L70.6307 59.4829C68.1628 61.9505 64.1618 61.9503 61.6942 59.4824L49.1837 46.9705Z" fill="#656565"/>
</svg>
