<svg width="80" height="80" viewBox="0 0 80 80" fill="none" xmlns="http://www.w3.org/2000/svg">
<path d="M39.979 0C59.8876 0 77.0108 14.1228 79.6919 34.9355C81.256 47.0794 76.7715 59.8008 68.0639 68.3984C60.7321 75.6376 50.5356 79.9007 40.2368 80C40.0653 80.0005 39.8936 80.0005 39.7221 80C24.5671 79.854 10.1076 70.4498 3.70554 56.8389C-1.23949 46.3253 -1.23086 33.6558 3.70554 23.1611C10.1533 9.45326 24.8543 0.000103759 39.979 0ZM52.4057 11.6426C41.0892 6.90818 27.4784 9.70667 18.8178 18.0586C11.4013 25.211 7.84096 36.1106 9.72702 46.1826C12.4022 60.4683 25.8578 71.6111 40.2798 71.75C40.4136 71.7505 40.5473 71.7505 40.6811 71.75C48.9978 71.6698 57.0621 68.1572 62.812 62.2764C69.3676 55.5712 72.7033 45.8373 71.5063 36.5498C70.1097 25.7139 62.5319 15.8792 52.4057 11.6426ZM40.4995 16C53.4782 16 63.9995 26.5213 63.9995 39.5C63.9995 52.4787 53.4782 63 40.4995 63C27.5209 62.9999 16.9995 52.4786 16.9995 39.5C16.9995 26.5214 27.5209 16.0001 40.4995 16Z" fill="#656565"/>
</svg>
