<svg width="152" height="138" viewBox="0 0 152 138" fill="none" xmlns="http://www.w3.org/2000/svg">
<path d="M60.8289 42.312L107.195 71.0287M60.8289 42.312C57.2195 45.5072 54.0113 49.2733 51.3452 53.5781C48.679 57.8829 46.7366 62.4328 45.4841 67.0878M60.8289 42.312C71.7225 32.6687 86.2717 28.2251 100.609 29.8731M45.4841 67.0878L91.8501 95.8046M45.4841 67.0878C41.704 81.1366 44.2075 96.1419 52.0702 108.244M100.609 29.8731C96.5841 23.6786 91.1558 18.2454 84.4473 14.0905C60.2902 -0.871179 28.6843 6.41192 13.8535 30.3577C-0.977286 54.3035 6.58322 85.8442 30.7403 100.806C37.4488 104.961 44.7314 107.4 52.0702 108.244M100.609 29.8731C107.948 30.7167 115.23 33.1559 121.939 37.3108C146.096 52.2725 153.656 83.8132 138.826 107.759C123.995 131.705 92.389 138.988 68.2319 124.026C61.5234 119.871 56.0952 114.438 52.0702 108.244M100.609 29.8731C111.076 45.9841 112.046 67.2426 101.334 84.5386C90.6218 101.835 71.1575 110.437 52.0702 108.244" stroke="#9F7AEA" stroke-width="11" stroke-linecap="round" stroke-linejoin="round"/>
</svg>
