<svg width="144" height="144" viewBox="0 0 144 144" fill="none" xmlns="http://www.w3.org/2000/svg">
<path d="M144 19.6364C144 8.79153 135.209 0 124.364 0H98.1818C94.5668 0 91.6364 2.93053 91.6364 6.54545C91.6364 10.1604 94.5668 13.0909 98.1818 13.0909H124.364C127.979 13.0909 130.909 16.0214 130.909 19.6364V45.8182C130.909 49.4331 133.839 52.3636 137.455 52.3636C141.07 52.3636 144 49.4331 144 45.8182V19.6364Z" fill="#9F7AEA"/>
<path d="M144 98.1818C144 94.5668 141.07 91.6364 137.455 91.6364C133.839 91.6364 130.909 94.5668 130.909 98.1818V124.364C130.909 127.979 127.979 130.909 124.364 130.909H98.1818C94.5668 130.909 91.6364 133.839 91.6364 137.455C91.6364 141.07 94.5668 144 98.1818 144H124.364C135.209 144 144 135.209 144 124.364V98.1818Z" fill="#9F7AEA"/>
<path d="M19.6364 130.909C16.0214 130.909 13.0909 127.979 13.0909 124.364V98.1818C13.0909 94.5668 10.1604 91.6364 6.54545 91.6364C2.93053 91.6364 0 94.5668 0 98.1818V124.364C0 135.209 8.79153 144 19.6364 144H45.8182C49.4331 144 52.3636 141.07 52.3636 137.455C52.3636 133.839 49.4331 130.909 45.8182 130.909H19.6364Z" fill="#9F7AEA"/>
<path d="M0 45.8182C0 49.4331 2.93053 52.3636 6.54545 52.3636C10.1604 52.3636 13.0909 49.4331 13.0909 45.8182V19.6364C13.0909 16.0214 16.0214 13.0909 19.6364 13.0909H45.8182C49.4331 13.0909 52.3636 10.1604 52.3636 6.54545C52.3636 2.93053 49.4331 0 45.8182 0H19.6364C8.79153 0 0 8.79153 0 19.6364V45.8182Z" fill="#9F7AEA"/>
<path fill-rule="evenodd" clip-rule="evenodd" d="M65.4545 32.7273C65.4545 29.1123 62.5241 26.1818 58.9091 26.1818H32.7273C29.1123 26.1818 26.1818 29.1123 26.1818 32.7273V58.9091C26.1818 62.5241 29.1123 65.4545 32.7273 65.4545H58.9091C62.5241 65.4545 65.4545 62.5241 65.4545 58.9091V32.7273ZM52.3636 42.5455C52.3636 40.738 50.8984 39.2727 49.0909 39.2727H42.5455C40.738 39.2727 39.2727 40.738 39.2727 42.5455V49.0909C39.2727 50.8984 40.738 52.3636 42.5455 52.3636H49.0909C50.8984 52.3636 52.3636 50.8984 52.3636 49.0909V42.5455Z" fill="#9F7AEA"/>
<path fill-rule="evenodd" clip-rule="evenodd" d="M111.273 78.5455C114.888 78.5455 117.818 81.4759 117.818 85.0909V111.273C117.818 114.888 114.888 117.818 111.273 117.818H85.0909C81.4759 117.818 78.5455 114.888 78.5455 111.273V85.0909C78.5455 81.4759 81.4759 78.5455 85.0909 78.5455H111.273ZM91.6364 94.9091C91.6364 93.1019 93.1019 91.6364 94.9091 91.6364H101.455C103.262 91.6364 104.727 93.1019 104.727 94.9091V101.455C104.727 103.262 103.262 104.727 101.455 104.727H94.9091C93.1019 104.727 91.6364 103.262 91.6364 101.455V94.9091Z" fill="#9F7AEA"/>
<path d="M85.0909 26.1818C81.4759 26.1818 78.5455 29.1123 78.5455 32.7273C78.5455 36.3423 81.4759 39.2727 85.0909 39.2727H101.455C103.262 39.2727 104.727 40.738 104.727 42.5455V58.9091C104.727 62.5241 107.658 65.4545 111.273 65.4545C114.888 65.4545 117.818 62.5241 117.818 58.9091V32.7273C117.818 29.1123 114.888 26.1818 111.273 26.1818H85.0909Z" fill="#9F7AEA"/>
<path d="M85.0909 45.8182C81.4759 45.8182 78.5455 48.7487 78.5455 52.3636V58.9091C78.5455 62.5241 81.4759 65.4546 85.0909 65.4546C88.706 65.4546 91.6364 62.5241 91.6364 58.9091V52.3636C91.6364 48.7487 88.706 45.8182 85.0909 45.8182Z" fill="#9F7AEA"/>
<path d="M32.7273 78.5455C29.1123 78.5455 26.1818 81.4759 26.1818 85.0909V98.1818C26.1818 101.797 29.1123 104.727 32.7273 104.727C36.3423 104.727 39.2727 101.797 39.2727 98.1818V94.9091C39.2727 93.1019 40.738 91.6364 42.5455 91.6364H58.9091C62.5241 91.6364 65.4545 88.706 65.4545 85.0909C65.4545 81.4759 62.5241 78.5455 58.9091 78.5455H32.7273Z" fill="#9F7AEA"/>
<path d="M58.9091 104.727C55.2941 104.727 52.3636 107.658 52.3636 111.273C52.3636 114.888 55.2941 117.818 58.9091 117.818C62.5241 117.818 65.4545 114.888 65.4545 111.273C65.4545 107.658 62.5241 104.727 58.9091 104.727Z" fill="#9F7AEA"/>
</svg>
