<svg width="39" height="39" viewBox="0 0 39 39" fill="none" xmlns="http://www.w3.org/2000/svg">
<path d="M31.9404 1.82129C33.035 0.726711 34.8098 0.726711 35.9043 1.82129L37.1787 3.0957L37.3711 3.30859C38.2691 4.40945 38.2049 6.03337 37.1787 7.05957L24.7383 19.5L37.1787 31.9404H37.1797C38.2738 33.035 38.2738 34.8097 37.1797 35.9043H37.1787L35.9043 37.1787C34.8098 38.2732 33.0349 38.2732 31.9404 37.1787L19.5 24.7383L7.05957 37.1787C5.965 38.2732 4.19027 38.2732 3.0957 37.1787L1.82129 35.9043C0.7268 34.8096 0.7268 33.0351 1.82129 31.9404L14.2617 19.5L1.82129 7.05957C0.726733 5.96502 0.726733 4.19026 1.82129 3.0957L3.0957 1.82129C4.19026 0.726735 5.96502 0.726735 7.05957 1.82129L19.5 14.2617L31.9404 1.82129Z" fill="white" stroke="#B3B3B3" stroke-width="2"/>
</svg>
