<svg width="125" height="132" viewBox="0 0 125 132" fill="none" xmlns="http://www.w3.org/2000/svg">
<path d="M62.5 83.6471V69.5294M62.5 83.6471V97.7647M62.5 83.6471H104.875C112.676 83.6471 119 77.3266 119 69.5294M62.5 83.6471H20.125C12.324 83.6471 6 77.3266 6 69.5294M119 69.5294V111.882C119 119.68 112.676 126 104.875 126H20.125C12.324 126 6 119.68 6 111.882V69.5294M119 69.5294V41.2941C119 33.4972 112.676 27.1765 104.875 27.1765H20.125C12.324 27.1765 6 33.4972 6 41.2941V69.5294M83.6875 27.1765V20.1176C83.6875 12.3207 77.3637 6 69.5625 6H55.4375C47.6365 6 41.3125 12.3207 41.3125 20.1176V27.1765" stroke="#9F7AEA" stroke-width="11" stroke-linecap="round" stroke-linejoin="round"/>
</svg>
