<svg width="135" height="135" viewBox="0 0 135 135" fill="none" xmlns="http://www.w3.org/2000/svg">
<path d="M53.0769 49.5781V46.7781C53.0769 42.8578 53.0769 40.8976 53.8399 39.4002C54.511 38.083 55.5818 37.0122 56.899 36.3411C58.3963 35.5781 60.3566 35.5781 64.2769 35.5781H69.8769C73.7972 35.5781 75.7576 35.5781 77.2549 36.3411C78.5719 37.0122 79.643 38.083 80.3139 39.4002C81.0769 40.8976 81.0769 42.8578 81.0769 46.7781V49.5781M53.0769 49.5781H52.3769C51.3598 49.5781 50.4297 49.5781 49.5769 49.584M53.0769 49.5781H81.0769M81.0769 49.5781H84.5769M49.5769 49.584V98.5781M49.5769 49.584C45.4996 49.6124 43.1675 49.7762 41.31 50.7226C39.3343 51.7292 37.728 53.3355 36.7213 55.3112C35.5769 57.5573 35.5769 60.4974 35.5769 66.3781V81.7781C35.5769 87.6588 35.5769 90.5988 36.7213 92.8451C37.728 94.8209 39.3343 96.427 41.31 97.4336C43.5561 98.5781 46.4963 98.5781 52.3769 98.5781H81.7769C87.6576 98.5781 90.5976 98.5781 92.8439 97.4336C94.8196 96.427 96.4258 94.8209 97.4324 92.8451C98.5769 90.5988 98.5769 87.6588 98.5769 81.7781V66.3781C98.5769 60.4974 98.5769 57.5573 97.4324 55.3112C96.4258 53.3355 94.8196 51.7292 92.8439 50.7226C90.5976 49.5781 87.6576 49.5781 81.7769 49.5781H84.5769M84.5769 49.5781V98.5781M130 67.5C130 102.018 102.018 130 67.5 130C32.9822 130 5 102.018 5 67.5C5 32.9822 32.9822 5 67.5 5C102.018 5 130 32.9822 130 67.5ZM122 68C122 98.3757 97.3757 123 67 123C36.6243 123 12 98.3757 12 68C12 37.6243 36.6243 13 67 13C97.3757 13 122 37.6243 122 68Z" stroke="#9F7AEA" stroke-width="9" stroke-linecap="round" stroke-linejoin="round"/>
</svg>
