<svg width="135" height="135" viewBox="0 0 135 135" fill="none" xmlns="http://www.w3.org/2000/svg">
<path d="M66.868 76.3604C80.4986 76.3604 91.5483 65.3107 91.5483 51.6802C91.5483 38.0497 80.4986 27 66.868 27C53.2375 27 42.1878 38.0497 42.1878 51.6802C42.1878 65.3107 53.2375 76.3604 66.868 76.3604ZM66.868 76.3604C42.1878 76.3604 27 95.3452 27 114.33M66.868 76.3604C91.5483 76.3604 106.736 95.3452 106.736 114.33M130 67.5C130 102.018 102.018 130 67.5 130C32.9822 130 5 102.018 5 67.5C5 32.9822 32.9822 5 67.5 5C102.018 5 130 32.9822 130 67.5ZM122 68C122 98.3757 97.3757 123 67 123C36.6243 123 12 98.3757 12 68C12 37.6243 36.6243 13 67 13C97.3757 13 122 37.6243 122 68Z" stroke="#9F7AEA" stroke-width="10" stroke-linecap="round" stroke-linejoin="round"/>
</svg>
