<svg width="87" height="75" viewBox="0 0 87 75" fill="none" xmlns="http://www.w3.org/2000/svg">
<path d="M68.2197 0C74.7785 8.2881e-05 80.4002 4.45318 81.8057 10.5469L86.7246 29.2969C87.1599 30.9037 87.0771 32.607 86.4883 34.1641C85.8994 35.7212 84.8347 37.0527 83.4453 37.9688L82.5088 38.6719C81.3629 39.3802 80.0895 39.8579 78.7607 40.0781V65.625C78.7533 68.1091 77.7634 70.4895 76.0078 72.2461C74.2523 74.0025 71.8733 74.9926 69.3906 75H60.4893C58.0066 74.9925 55.6276 74.0026 53.8721 72.2461C52.1165 70.4895 51.1275 68.1091 51.1201 65.625V56.25H38.2363V65.625C38.2289 68.1091 37.2398 70.4896 35.4844 72.2461C33.7289 74.0025 31.3497 74.9925 28.8672 75H17.8574C15.3748 74.9926 12.9958 74.0025 11.2402 72.2461C9.48468 70.4895 8.49472 68.1091 8.4873 65.625V40.0781C7.08208 39.8437 5.91108 39.1405 4.50586 38.4375L3.56836 37.7344C0.7575 35.8594 -0.647898 32.5781 0.289062 29.2969L5.20801 10.5469C6.03922 7.51706 7.84208 4.84387 10.3389 2.93848C12.8355 1.03325 15.8884 0.00091302 19.0283 0H68.2197ZM43.8584 36.6787C41.8493 36.6787 39.8878 37.2926 38.2363 38.4375C36.585 39.5822 34.6232 40.1953 32.6143 40.1953C30.6055 40.1952 28.6444 39.5821 26.9932 38.4375C24.1822 36.7969 20.9026 36.3281 17.8574 37.5V65.625H28.8672V56.25C28.8746 53.766 29.8637 51.3854 31.6191 49.6289C33.3746 47.8724 35.7537 46.8825 38.2363 46.875H51.1201C53.6028 46.8825 55.9818 47.8724 57.7373 49.6289C59.4927 51.3854 60.4818 53.766 60.4893 56.25V65.625H69.8594V37.5C68.3763 36.8958 66.7677 36.6647 65.1748 36.8281C63.5819 36.9916 62.0532 37.5447 60.7236 38.4375C59.0724 39.5821 57.1113 40.1952 55.1025 40.1953C53.0936 40.1953 51.1318 39.5822 49.4805 38.4375C47.829 37.2926 45.8675 36.6787 43.8584 36.6787ZM19.0283 9.375C16.6861 9.37509 14.8123 10.7815 14.3438 12.8906L9.89355 30.7031C9.93452 30.7574 9.98706 30.8017 10.0479 30.832C10.1087 30.8624 10.1761 30.8779 10.2441 30.8779C10.3122 30.8779 10.3795 30.8624 10.4404 30.832C10.5014 30.8017 10.5546 30.7575 10.5957 30.7031C13.7685 28.5279 17.5249 27.3643 21.3711 27.3643C25.2172 27.3643 28.9737 28.5279 32.1465 30.7031C32.1875 30.7575 32.2408 30.8017 32.3018 30.832C32.3625 30.8622 32.4292 30.8779 32.4971 30.8779C32.5651 30.8779 32.6325 30.8623 32.6934 30.832C32.7543 30.8017 32.8076 30.7575 32.8486 30.7031C36.0214 28.5279 39.7779 27.3643 43.624 27.3643C47.4702 27.3643 51.2266 28.5279 54.3994 30.7031C54.4405 30.7575 54.4937 30.8017 54.5547 30.832C54.6156 30.8623 54.6829 30.8779 54.751 30.8779C54.819 30.8779 54.8864 30.8623 54.9473 30.832C55.008 30.8017 55.0606 30.7574 55.1016 30.7031C58.2743 28.5279 62.0309 27.3643 65.877 27.3643C69.7231 27.3643 73.4796 28.5279 76.6523 30.7031C76.8866 30.9375 77.3555 30.7031 77.3555 30.7031L72.9043 12.8906C72.6753 11.8843 72.1094 10.9862 71.2998 10.3467C70.4902 9.70712 69.4856 9.36431 68.4541 9.375H19.0283Z" fill="#9F7AEA"/>
</svg>
