<svg width="122" height="100" viewBox="0 0 122 100" fill="none" xmlns="http://www.w3.org/2000/svg">
<path d="M49.8001 75.4034H27.4001M38.6001 58.4679H27.4001M117 50.0002C117 28.7109 117 18.0663 110.439 11.4526C103.879 4.83887 93.3188 4.83887 72.2001 4.83887H49.8001C28.6812 4.83887 18.1218 4.83887 11.5609 11.4526C5.00012 18.0663 5.00012 28.7109 5.00012 50.0002C5.00012 71.2892 5.00012 81.9343 11.5609 88.5476C18.1218 95.1614 28.6812 95.1614 49.8001 95.1614H72.2001C93.3188 95.1614 103.879 95.1614 110.439 88.5476C114.097 84.8601 115.715 79.9201 116.432 72.5808M5.00012 38.7098H33.0001M117 38.7098H55.4001M72.2001 66.9356C72.2001 61.6134 72.2001 58.9523 73.8404 57.2988C75.4806 55.6453 78.1204 55.6453 83.4001 55.6453C88.6798 55.6453 91.3196 55.6453 92.9599 57.2988C94.6001 58.9523 94.6001 61.6134 94.6001 66.9356C94.6001 72.2579 94.6001 74.919 92.9599 76.5725C91.3196 78.226 88.6798 78.226 83.4001 78.226C78.1204 78.226 75.4806 78.226 73.8404 76.5725C72.2001 74.919 72.2001 72.2579 72.2001 66.9356Z" stroke="#9F7AEA" stroke-width="9" stroke-linecap="round"/>
</svg>
