<svg width="106" height="95" viewBox="0 0 106 95" fill="none" xmlns="http://www.w3.org/2000/svg">
<path d="M53 68.833V4.83301M53 68.833L37 52.833M53 68.833L69 52.833M26.3333 31.4997H22.0667C16.0928 31.4997 13.1058 31.4997 10.8241 32.6623C8.81701 33.6849 7.18523 35.3167 6.16261 37.3237C5 39.6053 5 42.5925 5 48.5663V73.0997C5 79.0735 5 82.0607 6.16261 84.3423C7.18523 86.3493 8.81701 87.9813 10.8241 89.0037C13.1058 90.1663 16.0928 90.1663 22.0667 90.1663H83.9333C89.9072 90.1663 92.8944 90.1663 95.176 89.0037C97.1829 87.9813 98.8149 86.3493 99.8373 84.3423C101 82.0607 101 79.0735 101 73.0997V48.5663C101 42.5925 101 39.6053 99.8373 37.3237C98.8149 35.3167 97.1829 33.6849 95.176 32.6623C92.8944 31.4997 89.9072 31.4997 83.9333 31.4997H79.6667" stroke="#9F7AEA" stroke-width="9" stroke-linecap="round" stroke-linejoin="round"/>
</svg>
